<svg width="24" height="24" viewBox="0 0 24 24" fill="none" xmlns="http://www.w3.org/2000/svg">
<path d="M4.99999 3L4.99999 21C5.00056 21.1822 5.05082 21.3609 5.14536 21.5167C5.23991 21.6725 5.37515 21.7995 5.53654 21.8842C5.69793 21.9689 5.87935 22.0079 6.06127 21.9971C6.24319 21.9863 6.41873 21.9261 6.56899 21.823L19.569 12.823C20.108 12.45 20.108 11.552 19.569 11.178L6.56899 2.178C6.41904 2.07383 6.24342 2.01274 6.06119 2.00137C5.87897 1.99 5.69711 2.02878 5.53538 2.11351C5.37365 2.19824 5.23823 2.32568 5.14384 2.48197C5.04945 2.63825 4.9997 2.81742 4.99999 3Z" fill="white"/>
</svg>
