<svg width="616" height="144" viewBox="0 0 616 144" fill="none" xmlns="http://www.w3.org/2000/svg">
<path d="M236.669 102.742C234.581 102.742 232.877 102.302 231.558 101.423C230.294 100.543 229.222 99.1419 228.343 97.2182L208.391 53.1927C207.511 51.269 207.237 49.5376 207.566 47.9987C207.896 46.4597 208.666 45.278 209.875 44.4535C211.084 43.5741 212.596 43.1344 214.409 43.1344C216.663 43.1344 218.339 43.6291 219.439 44.6184C220.593 45.6078 221.582 47.0643 222.407 48.988L239.225 87.9019H234.608L251.427 48.9055C252.252 46.9818 253.241 45.5528 254.395 44.6184C255.549 43.6291 257.171 43.1344 259.259 43.1344C260.963 43.1344 262.392 43.5741 263.546 44.4535C264.701 45.278 265.415 46.4597 265.69 47.9987C266.02 49.5376 265.745 51.269 264.866 53.1927L244.832 97.2182C244.007 99.1419 242.963 100.543 241.699 101.423C240.434 102.302 238.758 102.742 236.669 102.742ZM269.712 102.742C268.008 102.742 266.579 102.357 265.425 101.588C264.27 100.763 263.556 99.6641 263.281 98.29C263.006 96.8609 263.254 95.267 264.023 93.5082L284.552 49.3178C285.541 47.1742 286.75 45.6078 288.179 44.6184C289.663 43.6291 291.34 43.1344 293.209 43.1344C295.077 43.1344 296.699 43.6291 298.073 44.6184C299.502 45.6078 300.739 47.1742 301.783 49.3178L322.312 93.5082C323.191 95.267 323.493 96.8609 323.218 98.29C322.999 99.719 322.312 100.818 321.157 101.588C320.058 102.357 318.684 102.742 317.035 102.742C314.837 102.742 313.133 102.247 311.924 101.258C310.769 100.269 309.725 98.6747 308.791 96.4762L304.339 86.0057L310.11 90.2104H276.142L281.996 86.0057L277.544 96.4762C276.555 98.6747 275.538 100.269 274.494 101.258C273.449 102.247 271.855 102.742 269.712 102.742ZM293.044 59.7058L283.48 82.543L281.172 78.5857H305.163L302.855 82.543L293.209 59.7058H293.044ZM336.962 102.742C334.653 102.742 332.894 102.137 331.685 100.928C330.476 99.719 329.871 97.9327 329.871 95.5693V50.6369C329.871 48.2185 330.476 46.3772 331.685 45.1131C332.894 43.794 334.488 43.1344 336.467 43.1344C338.226 43.1344 339.6 43.4642 340.589 44.1237C341.579 44.7833 342.678 45.8826 343.887 47.4215L370.022 80.0697H367.714V50.2247C367.714 47.9162 368.291 46.1574 369.445 44.9482C370.654 43.739 372.413 43.1344 374.721 43.1344C377.03 43.1344 378.761 43.739 379.915 44.9482C381.125 46.1574 381.729 47.9162 381.729 50.2247V95.8991C381.729 97.9877 381.18 99.6641 380.08 100.928C378.981 102.137 377.497 102.742 375.628 102.742C373.759 102.742 372.275 102.412 371.176 101.753C370.132 101.038 369.005 99.9389 367.796 98.4549L341.661 65.7243H343.969V95.5693C343.969 97.9327 343.365 99.719 342.156 100.928C341.001 102.137 339.27 102.742 336.962 102.742ZM399.934 102.742C397.516 102.742 395.647 102.082 394.328 100.763C393.009 99.3892 392.349 97.493 392.349 95.0746V51.5438C392.349 49.0704 393.009 47.1742 394.328 45.8551C395.702 44.536 397.598 43.8764 400.016 43.8764H420.298C426.893 43.8764 431.978 45.5803 435.55 48.988C439.178 52.3407 440.992 56.9851 440.992 62.9212C440.992 68.8572 439.178 73.5291 435.55 76.9368C431.978 80.2895 426.893 81.9659 420.298 81.9659H407.519V95.0746C407.519 97.493 406.887 99.3892 405.623 100.763C404.359 102.082 402.462 102.742 399.934 102.742ZM407.519 70.3412H417.66C420.518 70.3412 422.716 69.7366 424.255 68.5274C425.794 67.2633 426.564 65.3945 426.564 62.9212C426.564 60.3929 425.794 58.5241 424.255 57.3149C422.716 56.1057 420.518 55.5011 417.66 55.5011H407.519V70.3412ZM455.731 102C453.313 102 451.416 101.34 450.042 100.021C448.723 98.6472 448.064 96.751 448.064 94.3326V51.4613C448.064 48.988 448.723 47.0918 450.042 45.7726C451.362 44.4535 453.23 43.794 455.649 43.794C458.122 43.794 459.991 44.4535 461.255 45.7726C462.574 47.0918 463.234 48.988 463.234 51.4613V89.3859H483.35C485.439 89.3859 487.033 89.9356 488.132 91.0348C489.286 92.0791 489.863 93.6181 489.863 95.6517C489.863 97.6854 489.286 99.2518 488.132 100.351C487.033 101.45 485.439 102 483.35 102H455.731ZM498.287 102.742C496.583 102.742 495.154 102.357 494 101.588C492.845 100.763 492.131 99.6641 491.856 98.29C491.581 96.8609 491.829 95.267 492.598 93.5082L513.127 49.3178C514.116 47.1742 515.325 45.6078 516.754 44.6184C518.238 43.6291 519.915 43.1344 521.784 43.1344C523.652 43.1344 525.274 43.6291 526.648 44.6184C528.077 45.6078 529.314 47.1742 530.358 49.3178L550.887 93.5082C551.766 95.267 552.068 96.8609 551.793 98.29C551.574 99.719 550.887 100.818 549.732 101.588C548.633 102.357 547.259 102.742 545.61 102.742C543.412 102.742 541.708 102.247 540.499 101.258C539.344 100.269 538.3 98.6747 537.366 96.4762L532.914 86.0057L538.685 90.2104H504.717L510.571 86.0057L506.119 96.4762C505.13 98.6747 504.113 100.269 503.069 101.258C502.024 102.247 500.43 102.742 498.287 102.742ZM521.619 59.7058L512.055 82.543L509.747 78.5857H533.738L531.43 82.543L521.784 59.7058H521.619ZM565.537 102.742C563.228 102.742 561.469 102.137 560.26 100.928C559.051 99.719 558.446 97.9327 558.446 95.5693V50.6369C558.446 48.2185 559.051 46.3772 560.26 45.1131C561.469 43.794 563.063 43.1344 565.042 43.1344C566.801 43.1344 568.175 43.4642 569.164 44.1237C570.154 44.7833 571.253 45.8826 572.462 47.4215L598.597 80.0697H596.289V50.2247C596.289 47.9162 596.866 46.1574 598.02 44.9482C599.229 43.739 600.988 43.1344 603.296 43.1344C605.605 43.1344 607.336 43.739 608.49 44.9482C609.7 46.1574 610.304 47.9162 610.304 50.2247V95.8991C610.304 97.9877 609.755 99.6641 608.655 100.928C607.556 102.137 606.072 102.742 604.203 102.742C602.334 102.742 600.85 102.412 599.751 101.753C598.707 101.038 597.58 99.9389 596.371 98.4549L570.236 65.7243H572.544V95.5693C572.544 97.9327 571.94 99.719 570.731 100.928C569.576 102.137 567.845 102.742 565.537 102.742Z" fill="white"/>
<path fill-rule="evenodd" clip-rule="evenodd" d="M116.906 19.929C136.857 19.929 153.1 35.7572 153.787 55.5411H153.785C159.347 59.5152 165 67.9316 165 75.2883C165 88.6227 152.865 94.1669 144.212 94.3542C141.631 94.2513 134.104 94.2789 124.182 94.3542C117.289 94.4056 34.2771 94.9529 21.3908 94.3542C8.50453 93.7555 0 81.8811 0 69.5219C0 54.2134 9.00404 43.5107 23.5468 40.8588C26.5034 17.8134 46.1772 0 70.0269 0C86.261 0 100.565 8.25294 108.978 20.7921C111.532 20.232 114.184 19.929 116.906 19.929ZM49.1797 108.071C46.4361 106.721 40.3703 109.446 35.0024 113.359C30.9311 116.329 27.26 119.982 25.745 123.061C22.2319 130.201 25.1738 138.838 32.3139 142.351C39.454 145.864 48.0907 142.922 51.6038 135.782C53.1189 132.703 53.7727 127.566 53.6404 122.529C53.466 115.886 51.9215 109.418 49.1779 108.071H49.1797ZM43.6172 131.041C42.3629 133.591 39.2777 134.642 36.725 133.388C34.1742 132.133 33.1238 129.048 34.3781 126.495C35.6323 123.945 38.7176 122.894 41.2702 124.149C43.821 125.403 44.8714 128.488 43.6172 131.041ZM77.5306 113.359C82.8985 109.446 88.9643 106.721 91.7079 108.071H91.7061C94.4497 109.418 95.9941 115.886 96.1686 122.529C96.3008 127.566 95.6471 132.703 94.132 135.782C90.6189 142.922 81.9821 145.864 74.8421 142.351C67.702 138.838 64.76 130.201 68.2731 123.061C69.7882 119.982 73.4592 116.329 77.5306 113.359ZM79.2532 133.388C81.8058 134.642 84.891 133.591 86.1453 131.041C87.3996 128.488 86.3492 125.403 83.7984 124.149C81.2457 122.894 78.1605 123.945 76.9062 126.495C75.6519 129.048 76.7024 132.133 79.2532 133.388ZM120.061 113.359C125.429 109.446 131.494 106.721 134.238 108.071H134.236C136.98 109.418 138.524 115.886 138.699 122.529C138.831 127.566 138.177 132.703 136.662 135.782C133.149 142.922 124.512 145.864 117.372 142.351C110.232 138.838 107.29 130.201 110.803 123.061C112.318 119.982 115.989 116.329 120.061 113.359ZM121.783 133.388C124.336 134.642 127.421 133.591 128.675 131.041C129.93 128.488 128.879 125.403 126.328 124.149C123.776 122.894 120.69 123.945 119.436 126.495C118.182 129.048 119.231 132.133 121.783 133.388Z" fill="white"/>
</svg>
